<svg width="25" height="25" viewBox="0 0 25 25" fill="none" xmlns="http://www.w3.org/2000/svg">
<g clip-path="url(#clip0)">
<path d="M8.10121 19.4043C8.10121 19.502 7.98891 19.5801 7.84731 19.5801C7.68617 19.5947 7.57387 19.5166 7.57387 19.4043C7.57387 19.3066 7.68617 19.2285 7.82777 19.2285C7.97426 19.2139 8.10121 19.292 8.10121 19.4043ZM6.58266 19.1846C6.54848 19.2822 6.64613 19.3945 6.79262 19.4238C6.91957 19.4727 7.06606 19.4238 7.09535 19.3262C7.12465 19.2285 7.03188 19.1162 6.88539 19.0723C6.75844 19.0381 6.61684 19.0869 6.58266 19.1846ZM8.74086 19.1016C8.59926 19.1357 8.5016 19.2285 8.51625 19.3408C8.5309 19.4385 8.65785 19.502 8.80434 19.4678C8.94594 19.4336 9.04359 19.3408 9.02895 19.2432C9.0143 19.1504 8.88246 19.0869 8.74086 19.1016ZM11.9538 0.390625C5.18129 0.390625 0.00062561 5.53223 0.00062561 12.3047C0.00062561 17.7197 3.40883 22.3535 8.27699 23.9844C8.90199 24.0967 9.12172 23.7109 9.12172 23.3936C9.12172 23.0908 9.10707 21.4209 9.10707 20.3955C9.10707 20.3955 5.6891 21.1279 4.97133 18.9404C4.97133 18.9404 4.41469 17.5195 3.61391 17.1533C3.61391 17.1533 2.49574 16.3867 3.69203 16.4014C3.69203 16.4014 4.90785 16.499 5.5768 17.6611C6.64613 19.5459 8.43813 19.0039 9.13637 18.6816C9.24867 17.9004 9.56606 17.3584 9.91762 17.0361C7.18813 16.7334 4.43422 16.3379 4.43422 11.6406C4.43422 10.2979 4.80531 9.62402 5.58656 8.76465C5.45961 8.44727 5.04457 7.13867 5.71352 5.44922C6.73402 5.13184 9.08266 6.76758 9.08266 6.76758C10.0592 6.49414 11.109 6.35254 12.1491 6.35254C13.1891 6.35254 14.2389 6.49414 15.2155 6.76758C15.2155 6.76758 17.5641 5.12695 18.5846 5.44922C19.2536 7.14355 18.8385 8.44727 18.7116 8.76465C19.4928 9.62891 19.9713 10.3027 19.9713 11.6406C19.9713 16.3525 17.0954 16.7285 14.3659 17.0361C14.8151 17.4219 15.1959 18.1543 15.1959 19.3018C15.1959 20.9473 15.1813 22.9834 15.1813 23.3838C15.1813 23.7012 15.4059 24.0869 16.026 23.9746C20.9088 22.3535 24.2194 17.7197 24.2194 12.3047C24.2194 5.53223 18.7262 0.390625 11.9538 0.390625ZM4.74672 17.2314C4.68324 17.2803 4.69789 17.3926 4.7809 17.4854C4.85902 17.5635 4.97133 17.5977 5.03481 17.5342C5.09828 17.4854 5.08363 17.373 5.00063 17.2803C4.9225 17.2021 4.8102 17.168 4.74672 17.2314ZM4.21938 16.8359C4.1852 16.8994 4.23402 16.9775 4.33168 17.0264C4.40981 17.0752 4.50746 17.0605 4.54164 16.9922C4.57582 16.9287 4.52699 16.8506 4.42934 16.8018C4.33168 16.7725 4.25356 16.7871 4.21938 16.8359ZM5.80141 18.5742C5.72328 18.6377 5.75258 18.7842 5.86488 18.877C5.97719 18.9893 6.11879 19.0039 6.18227 18.9258C6.24574 18.8623 6.21645 18.7158 6.11879 18.623C6.01137 18.5107 5.86488 18.4961 5.80141 18.5742ZM5.24477 17.8564C5.16664 17.9053 5.16664 18.0322 5.24477 18.1445C5.32289 18.2568 5.45473 18.3057 5.5182 18.2568C5.59633 18.1934 5.59633 18.0664 5.5182 17.9541C5.44984 17.8418 5.32289 17.793 5.24477 17.8564Z" fill="white"/>
</g>
<defs>
<clipPath id="clip0">
<rect width="24.22" height="25" fill="white"/>
</clipPath>
</defs>
</svg>
