<svg width="205" height="85" viewBox="0 0 205 85" fill="none" xmlns="http://www.w3.org/2000/svg">
<path d="M156.494 25.217V38.3363H170.094V25.217H177.491V59.4291H170.094V44.6602H156.494V59.4291H149.096V25.217H156.494Z" fill="white"/>
<path d="M27.2724 56.876C24.8066 59.0757 21.3391 60.1755 16.9855 60.1755C12.5548 60.1755 9.08735 59.0757 6.66012 56.876C4.23288 54.7157 3 51.3377 3 46.7813V25.9634H10.2046V46.7813C10.2046 47.6847 10.2817 48.5882 10.4358 49.4523C10.5899 50.3164 10.8981 51.102 11.399 51.7698C11.8999 52.4375 12.5548 52.9874 13.441 53.4195C14.3271 53.8516 15.4829 54.0479 16.947 54.0479C19.5283 54.0479 21.3006 53.4588 22.2638 52.2804C23.227 51.102 23.7278 49.2559 23.7278 46.7813V25.9634H30.9325V46.7813C31.0095 51.2984 29.7766 54.6764 27.2724 56.876Z" fill="white"/>
<path d="M56.6689 59.1934C55.0893 59.8612 53.5096 60.2147 51.93 60.2147C49.4257 60.2147 47.1526 59.7826 45.1492 58.8792C43.1457 57.9758 41.4505 56.7581 40.0635 55.187C38.6766 53.6158 37.6363 51.7697 36.9043 49.6879C36.1723 47.5668 35.787 45.2886 35.787 42.8533C35.787 40.3395 36.1723 38.022 36.9043 35.9009C37.6363 33.7799 38.7151 31.8945 40.0635 30.284C41.4505 28.6736 43.1457 27.4559 45.1492 26.5525C47.1526 25.6491 49.4257 25.1777 51.93 25.1777C53.6252 25.1777 55.2434 25.4527 56.823 25.9633C58.4026 26.4739 59.8282 27.2202 61.0996 28.2415C62.371 29.2235 63.4112 30.4804 64.2588 31.9337C65.0679 33.3871 65.6073 35.0761 65.7614 37.0007H58.865C58.4412 35.1154 57.5936 33.7013 56.3992 32.7979C55.1663 31.8552 53.7023 31.3838 51.93 31.3838C50.3119 31.3838 48.9249 31.6981 47.8076 32.3265C46.6903 32.955 45.7656 33.8191 45.0336 34.919C44.3401 35.9795 43.8007 37.2364 43.4925 38.6112C43.1843 39.986 42.9916 41.4 42.9916 42.8926C42.9916 44.3067 43.1457 45.6814 43.4925 46.9776C43.8007 48.3131 44.3401 49.4915 45.0336 50.552C45.7271 51.6126 46.6518 52.4767 47.8076 53.1052C48.9249 53.7337 50.3119 54.0479 51.93 54.0479C54.3187 54.0479 56.1681 53.4194 57.478 52.2018C58.7879 50.9841 59.5585 49.1773 59.7511 46.8205H52.4694V41.3215H66.2623V59.4291H61.6775L60.9455 55.619C59.6355 57.3473 58.21 58.5257 56.6689 59.1934Z" fill="white"/>
<path d="M71.7718 35.9009C72.5039 33.7799 73.5826 31.8945 74.9311 30.284C76.3181 28.6736 78.0133 27.4559 80.0167 26.5525C82.0202 25.6491 84.2933 25.1777 86.7976 25.1777C89.3404 25.1777 91.6135 25.6491 93.617 26.5525C95.6204 27.4559 97.2771 28.7129 98.6641 30.284C100.051 31.8945 101.091 33.7406 101.823 35.9009C102.555 38.0613 102.941 40.3788 102.941 42.8533C102.941 45.2886 102.555 47.5668 101.823 49.6879C101.091 51.809 100.013 53.6158 98.6641 55.187C97.2771 56.7581 95.5819 57.9758 93.617 58.8792C91.6135 59.7826 89.3404 60.2147 86.7976 60.2147C84.2933 60.2147 82.0202 59.7826 80.0167 58.8792C78.0133 57.9758 76.3181 56.7581 74.9311 55.187C73.5441 53.6158 72.5039 51.7697 71.7718 49.6879C71.0398 47.5668 70.6545 45.2886 70.6545 42.8533C70.6931 40.3395 71.0398 38.022 71.7718 35.9009ZM78.3986 46.9384C78.7068 48.2739 79.2462 49.4522 79.9397 50.5128C80.6332 51.5733 81.5578 52.4374 82.7137 53.0659C83.831 53.6944 85.218 54.0086 86.8361 54.0086C88.4543 54.0086 89.8413 53.6944 90.9586 53.0659C92.0759 52.4374 93.0005 51.5733 93.7325 50.5128C94.426 49.4522 94.9654 48.2739 95.2736 46.9384C95.5819 45.6029 95.7745 44.2281 95.7745 42.8533C95.7745 41.4 95.6204 39.9467 95.2736 38.5719C94.9654 37.1971 94.426 35.9795 93.7325 34.8797C93.039 33.8191 92.1144 32.955 90.9586 32.2873C89.8413 31.6588 88.4543 31.3446 86.8361 31.3446C85.218 31.3446 83.831 31.6588 82.7137 32.2873C81.5964 32.9157 80.6717 33.7799 79.9397 34.8797C79.2462 35.9402 78.7068 37.1971 78.3986 38.5719C78.0904 39.9467 77.8977 41.3607 77.8977 42.8533C77.8977 44.2674 78.0518 45.6029 78.3986 46.9384Z" fill="white"/>
<path d="M163.313 85C140.312 85 121.626 65.9496 121.626 42.5C121.626 19.0504 140.312 0 163.313 0C186.314 0 205 19.0504 205 42.5C205 65.9496 186.276 85 163.313 85ZM163.313 5.93115C143.51 5.93115 127.444 22.3498 127.444 42.5C127.444 62.6502 143.549 79.0688 163.313 79.0688C183.078 79.0688 199.182 62.6502 199.182 42.5C199.182 22.3498 183.078 5.93115 163.313 5.93115Z" fill="white"/>
</svg>
